<svg width="231" height="68" viewBox="0 0 231 68" fill="none" xmlns="http://www.w3.org/2000/svg">
<rect x="0.5" y="0.5" width="230" height="67" rx="13.5" stroke="#191A23"/>
<path d="M36.8656 41V27H42.5256C43.3923 27 44.1523 27.1533 44.8056 27.46C45.4723 27.7533 45.9923 28.18 46.3656 28.74C46.739 29.2867 46.9256 29.9467 46.9256 30.72V30.94C46.9256 31.86 46.7056 32.5867 46.2656 33.12C45.8256 33.6533 45.3056 34.0133 44.7056 34.2V34.48C45.1856 34.4933 45.579 34.6533 45.8856 34.96C46.2056 35.2533 46.3656 35.7 46.3656 36.3V41H44.7056V36.5C44.7056 36.1 44.5923 35.7933 44.3656 35.58C44.1523 35.3667 43.8256 35.26 43.3856 35.26H38.5456V41H36.8656ZM38.5456 33.74H42.3656C43.2856 33.74 43.9923 33.52 44.4856 33.08C44.9923 32.6267 45.2456 32 45.2456 31.2V31.06C45.2456 30.26 44.999 29.64 44.5056 29.2C44.0123 28.7467 43.299 28.52 42.3656 28.52H38.5456V33.74ZM54.0228 41.28C53.0361 41.28 52.1695 41.0733 51.4228 40.66C50.6761 40.2333 50.0961 39.64 49.6828 38.88C49.2695 38.12 49.0628 37.24 49.0628 36.24V36C49.0628 34.9867 49.2695 34.1 49.6828 33.34C50.0961 32.58 50.6695 31.9933 51.4028 31.58C52.1361 31.1533 52.9761 30.94 53.9228 30.94C54.8428 30.94 55.6561 31.14 56.3628 31.54C57.0695 31.9267 57.6228 32.4867 58.0228 33.22C58.4228 33.9533 58.6228 34.8133 58.6228 35.8V36.52H50.6428C50.6828 37.5733 51.0228 38.4 51.6628 39C52.3028 39.5867 53.1028 39.88 54.0628 39.88C54.9028 39.88 55.5495 39.6867 56.0028 39.3C56.4561 38.9133 56.8028 38.4533 57.0428 37.92L58.4028 38.58C58.2028 38.9933 57.9228 39.4067 57.5628 39.82C57.2161 40.2333 56.7561 40.58 56.1828 40.86C55.6228 41.14 54.9028 41.28 54.0228 41.28ZM50.6628 35.22H57.0228C56.9695 34.3133 56.6561 33.6067 56.0828 33.1C55.5228 32.5933 54.8028 32.34 53.9228 32.34C53.0295 32.34 52.2961 32.5933 51.7228 33.1C51.1495 33.6067 50.7961 34.3133 50.6628 35.22ZM69.3588 45V39.46H69.0788C68.9188 39.7533 68.6921 40.04 68.3988 40.32C68.1054 40.6 67.7188 40.8267 67.2388 41C66.7721 41.1867 66.1988 41.28 65.5188 41.28C64.6654 41.28 63.8854 41.08 63.1788 40.68C62.4854 40.28 61.9321 39.7 61.5188 38.94C61.1054 38.18 60.8988 37.28 60.8988 36.24V35.98C60.8988 34.9267 61.1054 34.0267 61.5188 33.28C61.9321 32.5333 62.4921 31.96 63.1988 31.56C63.9054 31.1467 64.6788 30.94 65.5188 30.94C66.5321 30.94 67.3188 31.1333 67.8788 31.52C68.4388 31.9067 68.8521 32.3467 69.1188 32.84H69.3988V31.22H70.9388V45H69.3588ZM65.9388 39.88C66.9521 39.88 67.7721 39.56 68.3988 38.92C69.0388 38.2667 69.3588 37.36 69.3588 36.2V36.02C69.3588 34.86 69.0388 33.96 68.3988 33.32C67.7721 32.6667 66.9521 32.34 65.9388 32.34C64.9388 32.34 64.1121 32.6667 63.4588 33.32C62.8188 33.96 62.4988 34.86 62.4988 36.02V36.2C62.4988 37.36 62.8188 38.2667 63.4588 38.92C64.1121 39.56 64.9388 39.88 65.9388 39.88ZM77.9898 41.18C77.2832 41.18 76.6298 41.0267 76.0298 40.72C75.4432 40.4133 74.9765 39.96 74.6298 39.36C74.2965 38.7467 74.1298 38.0067 74.1298 37.14V31.22H75.7098V37.02C75.7098 37.9933 75.9498 38.7 76.4298 39.14C76.9232 39.58 77.5832 39.8 78.4098 39.8C79.3432 39.8 80.1098 39.4933 80.7098 38.88C81.3098 38.2667 81.6098 37.3533 81.6098 36.14V31.22H83.1898V41H81.6498V39.34H81.3698C81.1565 39.8067 80.7898 40.2333 80.2698 40.62C79.7498 40.9933 78.9898 41.18 77.9898 41.18ZM90.9759 41.28C89.9893 41.28 89.1226 41.0733 88.3759 40.66C87.6293 40.2333 87.0493 39.64 86.6359 38.88C86.2226 38.12 86.0159 37.24 86.0159 36.24V36C86.0159 34.9867 86.2226 34.1 86.6359 33.34C87.0493 32.58 87.6226 31.9933 88.3559 31.58C89.0893 31.1533 89.9293 30.94 90.8759 30.94C91.7959 30.94 92.6093 31.14 93.3159 31.54C94.0226 31.9267 94.5759 32.4867 94.9759 33.22C95.3759 33.9533 95.5759 34.8133 95.5759 35.8V36.52H87.5959C87.6359 37.5733 87.9759 38.4 88.6159 39C89.2559 39.5867 90.0559 39.88 91.0159 39.88C91.8559 39.88 92.5026 39.6867 92.9559 39.3C93.4093 38.9133 93.7559 38.4533 93.9959 37.92L95.3559 38.58C95.1559 38.9933 94.8759 39.4067 94.5159 39.82C94.1693 40.2333 93.7093 40.58 93.1359 40.86C92.5759 41.14 91.8559 41.28 90.9759 41.28ZM87.6159 35.22H93.9759C93.9226 34.3133 93.6093 33.6067 93.0359 33.1C92.4759 32.5933 91.7559 32.34 90.8759 32.34C89.9826 32.34 89.2493 32.5933 88.6759 33.1C88.1026 33.6067 87.7493 34.3133 87.6159 35.22ZM102.272 41.28C101.059 41.28 100.032 41 99.1919 40.44C98.3652 39.88 97.8652 38.9933 97.6919 37.78L99.1919 37.44C99.2985 38.08 99.4985 38.5867 99.7919 38.96C100.085 39.32 100.445 39.58 100.872 39.74C101.312 39.8867 101.779 39.96 102.272 39.96C103.005 39.96 103.585 39.8133 104.012 39.52C104.439 39.2267 104.652 38.8333 104.652 38.34C104.652 37.8333 104.445 37.48 104.032 37.28C103.632 37.0667 103.079 36.8933 102.372 36.76L101.552 36.62C100.925 36.5133 100.352 36.3467 99.8319 36.12C99.3119 35.8933 98.8985 35.5867 98.5919 35.2C98.2852 34.8133 98.1319 34.3267 98.1319 33.74C98.1319 32.86 98.4719 32.1733 99.1519 31.68C99.8319 31.1867 100.732 30.94 101.852 30.94C102.959 30.94 103.852 31.1933 104.532 31.7C105.225 32.1933 105.672 32.8933 105.872 33.8L104.392 34.18C104.272 33.4733 103.985 32.98 103.532 32.7C103.079 32.4067 102.519 32.26 101.852 32.26C101.185 32.26 100.659 32.3867 100.272 32.64C99.8852 32.88 99.6919 33.24 99.6919 33.72C99.6919 34.1867 99.8719 34.5333 100.232 34.76C100.605 34.9733 101.099 35.1333 101.712 35.24L102.532 35.38C103.225 35.5 103.845 35.6667 104.392 35.88C104.952 36.08 105.392 36.3733 105.712 36.76C106.045 37.1467 106.212 37.6533 106.212 38.28C106.212 39.24 105.852 39.98 105.132 40.5C104.425 41.02 103.472 41.28 102.272 41.28ZM112.264 41C111.704 41 111.271 40.8467 110.964 40.54C110.671 40.2333 110.524 39.8133 110.524 39.28V32.6H107.584V31.22H110.524V27.74H112.104V31.22H115.304V32.6H112.104V39.04C112.104 39.44 112.297 39.64 112.684 39.64H114.864V41H112.264ZM126 41.28C125.32 41.28 124.7 41.16 124.14 40.92C123.58 40.68 123.14 40.3333 122.82 39.88C122.5 39.4267 122.34 38.8733 122.34 38.22C122.34 37.5533 122.5 37.0067 122.82 36.58C123.14 36.14 123.58 35.8133 124.14 35.6C124.7 35.3733 125.327 35.26 126.02 35.26H129.32V34.54C129.32 33.8467 129.113 33.3 128.7 32.9C128.3 32.5 127.7 32.3 126.9 32.3C126.113 32.3 125.5 32.4933 125.06 32.88C124.62 33.2533 124.32 33.76 124.16 34.4L122.68 33.92C122.84 33.3733 123.093 32.88 123.44 32.44C123.787 31.9867 124.247 31.6267 124.82 31.36C125.407 31.08 126.107 30.94 126.92 30.94C128.173 30.94 129.147 31.2667 129.84 31.92C130.533 32.56 130.88 33.4667 130.88 34.64V39.06C130.88 39.46 131.067 39.66 131.44 39.66H132.34V41H130.96C130.52 41 130.167 40.88 129.9 40.64C129.633 40.3867 129.5 40.0533 129.5 39.64V39.54H129.26C129.113 39.7933 128.913 40.06 128.66 40.34C128.42 40.6067 128.087 40.8267 127.66 41C127.233 41.1867 126.68 41.28 126 41.28ZM126.18 39.92C127.113 39.92 127.867 39.6467 128.44 39.1C129.027 38.54 129.32 37.76 129.32 36.76V36.54H126.08C125.453 36.54 124.933 36.68 124.52 36.96C124.12 37.2267 123.92 37.6333 123.92 38.18C123.92 38.7267 124.127 39.1533 124.54 39.46C124.967 39.7667 125.513 39.92 126.18 39.92ZM147.62 45V39.46H147.34C147.18 39.7533 146.954 40.04 146.66 40.32C146.367 40.6 145.98 40.8267 145.5 41C145.034 41.1867 144.46 41.28 143.78 41.28C142.927 41.28 142.147 41.08 141.44 40.68C140.747 40.28 140.194 39.7 139.78 38.94C139.367 38.18 139.16 37.28 139.16 36.24V35.98C139.16 34.9267 139.367 34.0267 139.78 33.28C140.194 32.5333 140.754 31.96 141.46 31.56C142.167 31.1467 142.94 30.94 143.78 30.94C144.794 30.94 145.58 31.1333 146.14 31.52C146.7 31.9067 147.114 32.3467 147.38 32.84H147.66V31.22H149.2V45H147.62ZM144.2 39.88C145.214 39.88 146.034 39.56 146.66 38.92C147.3 38.2667 147.62 37.36 147.62 36.2V36.02C147.62 34.86 147.3 33.96 146.66 33.32C146.034 32.6667 145.214 32.34 144.2 32.34C143.2 32.34 142.374 32.6667 141.72 33.32C141.08 33.96 140.76 34.86 140.76 36.02V36.2C140.76 37.36 141.08 38.2667 141.72 38.92C142.374 39.56 143.2 39.88 144.2 39.88ZM156.252 41.18C155.545 41.18 154.892 41.0267 154.292 40.72C153.705 40.4133 153.238 39.96 152.892 39.36C152.558 38.7467 152.392 38.0067 152.392 37.14V31.22H153.972V37.02C153.972 37.9933 154.212 38.7 154.692 39.14C155.185 39.58 155.845 39.8 156.672 39.8C157.605 39.8 158.372 39.4933 158.972 38.88C159.572 38.2667 159.872 37.3533 159.872 36.14V31.22H161.452V41H159.912V39.34H159.632C159.418 39.8067 159.052 40.2333 158.532 40.62C158.012 40.9933 157.252 41.18 156.252 41.18ZM169.278 41.28C168.291 41.28 167.418 41.0733 166.658 40.66C165.911 40.2467 165.324 39.6667 164.898 38.92C164.484 38.16 164.278 37.2667 164.278 36.24V35.98C164.278 34.9667 164.484 34.08 164.898 33.32C165.324 32.56 165.911 31.9733 166.658 31.56C167.418 31.1467 168.291 30.94 169.278 30.94C170.264 30.94 171.131 31.1467 171.878 31.56C172.638 31.9733 173.224 32.56 173.638 33.32C174.064 34.08 174.278 34.9667 174.278 35.98V36.24C174.278 37.2667 174.064 38.16 173.638 38.92C173.224 39.6667 172.638 40.2467 171.878 40.66C171.131 41.0733 170.264 41.28 169.278 41.28ZM169.278 39.86C170.318 39.86 171.144 39.5333 171.758 38.88C172.384 38.2133 172.698 37.32 172.698 36.2V36.02C172.698 34.9 172.384 34.0133 171.758 33.36C171.144 32.6933 170.318 32.36 169.278 32.36C168.251 32.36 167.424 32.6933 166.798 33.36C166.171 34.0133 165.858 34.9 165.858 36.02V36.2C165.858 37.32 166.171 38.2133 166.798 38.88C167.424 39.5333 168.251 39.86 169.278 39.86ZM180.311 41C179.751 41 179.317 40.8467 179.011 40.54C178.717 40.2333 178.571 39.8133 178.571 39.28V32.6H175.631V31.22H178.571V27.74H180.151V31.22H183.351V32.6H180.151V39.04C180.151 39.44 180.344 39.64 180.731 39.64H182.911V41H180.311ZM190.038 41.28C189.052 41.28 188.185 41.0733 187.438 40.66C186.692 40.2333 186.112 39.64 185.698 38.88C185.285 38.12 185.078 37.24 185.078 36.24V36C185.078 34.9867 185.285 34.1 185.698 33.34C186.112 32.58 186.685 31.9933 187.418 31.58C188.152 31.1533 188.992 30.94 189.938 30.94C190.858 30.94 191.672 31.14 192.378 31.54C193.085 31.9267 193.638 32.4867 194.038 33.22C194.438 33.9533 194.638 34.8133 194.638 35.8V36.52H186.658C186.698 37.5733 187.038 38.4 187.678 39C188.318 39.5867 189.118 39.88 190.078 39.88C190.918 39.88 191.565 39.6867 192.018 39.3C192.472 38.9133 192.818 38.4533 193.058 37.92L194.418 38.58C194.218 38.9933 193.938 39.4067 193.578 39.82C193.232 40.2333 192.772 40.58 192.198 40.86C191.638 41.14 190.918 41.28 190.038 41.28ZM186.678 35.22H193.038C192.985 34.3133 192.672 33.6067 192.098 33.1C191.538 32.5933 190.818 32.34 189.938 32.34C189.045 32.34 188.312 32.5933 187.738 33.1C187.165 33.6067 186.812 34.3133 186.678 35.22Z" fill="black"/>
</svg>
