<svg width="127" height="48" viewBox="0 0 127 48" fill="none" xmlns="http://www.w3.org/2000/svg">
<g style="mix-blend-mode:luminosity" clip-path="url(#clip0_1319_3677)">
<path fill-rule="evenodd" clip-rule="evenodd" d="M125.592 30.5633C120.337 38.4606 112.013 36.1691 109.514 34.3749C108.45 35.0147 106.584 36.417 104.097 36.255C98.799 35.9104 96.9018 29.2007 96.9018 29.2007C96.9399 29.2275 95.3238 29.6949 94.4504 29.6866C94.4391 31.6542 92.52 36.3546 87.3407 36.2945C81.5287 36.2273 80.3472 28.5531 80.3472 28.5531C80.3472 28.5531 79.7688 29.2649 77.5697 29.9739C77.6804 28.4622 77.5995 36.0644 70.6336 36.1761C65.1266 36.2646 63.6401 28.4348 63.6401 28.4348C63.6401 28.4348 62.6848 29.3143 60.8333 29.6194C60.951 28.0831 60.7597 36.2019 53.793 36.1761C49.085 36.1588 47.4761 31.353 47.6012 30.686C47.7609 29.8359 46.0101 36.2957 41.437 36.195C39.5498 36.1459 38.1429 34.9349 37.26 33.3204C36.0781 34.5189 34.3622 36.195 32.4373 36.195C28.982 36.195 27.4587 33.6337 27.7167 26.3179C27.7387 25.4502 27.6681 25.109 26.6949 24.9792C26.1107 24.8928 25.5125 24.7292 24.8795 24.643C24.6766 25.243 22.9559 35.9998 17.039 36.204C15.054 36.2725 13.9687 34.7485 13.0773 33.6174C11.7109 35.2194 9.9072 36.255 7.33767 36.255C2.98508 36.255 0.0195312 33.1365 0.0195312 29.2895C0.0195312 25.4425 2.98508 22.3242 7.33767 22.3242C8.10725 22.3242 8.32329 22.422 9.02635 22.6038C7.58049 10.9365 10.995 9.11303 13.982 9.11303C16.8497 9.11303 21.7489 15.012 14.8554 29.9751C16.3858 34.4381 19.6853 34.1857 21.2708 24.9982C21.5935 23.1307 20.7307 20.6105 22.0727 20.2588C24.526 19.616 24.7863 21.5446 25.9366 21.866C27.1529 22.2056 27.8628 22.1724 29.0305 22.3885C31.0257 22.7339 31.8043 23.6838 31.5612 25.7996C31.2693 28.4767 30.7586 32.3732 32.3157 32.8481C33.4385 33.1931 35.4885 31.1293 35.8483 30.0001C36.2079 28.871 36.283 28.4845 36.3149 27.6563C36.3636 25.8861 36.4246 24.5886 36.7652 23.2499C36.911 22.7319 37.0771 22.3888 37.7384 22.3654C38.2825 22.3531 39.2776 22.2079 39.7156 22.51C40.2994 22.8988 40.2265 23.2933 40.1594 24.3316C39.4805 39.1353 44.7064 31.7452 46.2646 25.8279C45.7098 19.1369 46.0907 9.23555 50.8216 9.06949C53.282 8.98313 54.3697 10.7301 54.4893 12.034C54.8278 15.7168 52.9321 21.8172 50.4391 25.9197C49.0143 34.2907 56.6688 35.9459 57.8928 29.2642C55.8902 28.4202 53.7258 25.0044 55.487 23.3397C56.4753 22.4055 60.5891 23.7476 60.6564 26.6748C62.6743 26.1965 62.9437 25.1867 62.9717 25.354C62.417 18.663 62.9315 9.23564 67.6627 9.06957C70.1228 8.98321 71.2103 10.7301 71.33 12.0341C71.6684 15.7168 69.7728 21.8173 67.2801 25.9199C65.8551 34.2907 73.5097 35.946 74.7335 29.2643C73.2507 29.0107 70.1208 25.3775 71.9267 23.3398C72.8918 22.2509 76.9905 24.5154 77.4494 26.7717C79.3879 26.2855 79.6512 25.3078 79.679 25.4724C79.1241 18.7816 79.6386 9.35422 84.3698 9.18815C86.8298 9.10179 87.9174 10.8487 88.037 12.1527C88.3755 15.8354 86.4798 21.936 83.9868 26.0385C82.5622 34.4095 90.2166 36.0644 91.4407 29.3827C89.4031 29.082 86.5073 25.2458 88.838 23.2833C89.7692 22.4992 93.3272 24.5346 94.1601 26.8568C95.3173 26.8173 96.0377 26.4636 96.1921 26.4279C94.3446 18.573 95.72 9.14836 100.809 9.06969C103.56 9.02721 106.25 10.3877 105.069 17.8606C103.942 24.9906 99.8921 27.9827 99.9016 28.0285C100.137 28.8827 102.216 36.0312 107.449 32.2594C107.178 31.7157 106.907 31.1603 106.755 30.4874C105.888 26.5677 107.592 22.1404 112.223 21.4249C114.876 21.0149 117.376 22.1598 117.771 24.741C118.421 28.9645 114.118 32.0233 112.482 32.6868C111.749 32.3178 119.125 36.5107 123.503 28.108C123.757 27.6282 124.063 27.6689 124.459 27.9162C124.739 28.0908 126.334 29.4299 125.592 30.5633ZM10.5038 28.2517C10.281 27.6615 9.82393 26.361 9.66229 25.7976C8.77205 25.1114 8.13663 25 6.99393 25C4.4545 25 2.95983 27.0809 2.95983 29.3247C2.95983 31.5684 4.58816 33.6496 7.12761 33.6496C9.32833 33.6496 11.0033 32.3235 11.5143 30.4462C11.1566 29.7143 10.8018 29.0417 10.5038 28.2517ZM13.9198 12.2015C12.1355 12.2015 11.5302 15.974 11.6476 19.1924C11.7516 22.0378 12.6487 24.5428 13.114 25.6653C13.2322 25.8059 13.2102 25.7144 13.3157 25.8636C16.4139 19.8472 15.1289 12.2015 13.9198 12.2015ZM51.0764 12.32C48.7702 12.0855 48.7851 20.6001 49.0714 22.51C50.2692 20.8118 52.3498 12.7772 51.0764 12.32ZM67.917 12.32C65.6109 12.0855 65.6257 20.6001 65.9122 22.51C67.1098 20.8118 69.1906 12.7772 67.917 12.32ZM84.6243 12.4384C82.3179 12.204 82.3328 20.7186 82.6193 22.6287C83.8169 20.9303 85.8977 12.8956 84.6243 12.4384ZM101.064 11.8215C97.4708 12.461 98.3075 23.0789 98.8532 24.9412C103.086 19.789 103.173 11.628 101.064 11.8215ZM114.53 25.0903C114.347 24.4133 113.434 24.0515 112.804 24.1407C110.999 24.359 109.25 26.3505 109.927 29.3824C110.078 30.0576 110.455 30.6792 110.449 30.6585C114.486 28.2577 114.83 26.3659 114.53 25.0903ZM38.4457 20.0218C37.93 20.0219 37.426 19.8864 36.9972 19.6326C36.5684 19.3787 36.2342 19.0179 36.0367 18.5957C35.8393 18.1735 35.7877 17.7089 35.8883 17.2607C35.9888 16.8124 36.2371 16.4007 36.6017 16.0775C36.9663 15.7543 37.4308 15.5342 37.9365 15.4451C38.4422 15.3559 38.9665 15.4016 39.4429 15.5765C39.9193 15.7514 40.3264 16.0476 40.6129 16.4276C40.8993 16.8076 41.0522 17.2544 41.0522 17.7114C41.0522 18.0148 40.9849 18.3152 40.8538 18.5955C40.7229 18.8758 40.531 19.1305 40.2888 19.345C40.0467 19.5596 39.7595 19.7298 39.4432 19.8459C39.127 19.962 38.7881 20.0218 38.4457 20.0218Z" fill="#0D0C22"/>
</g>
<defs>
<clipPath id="clip0_1319_3677">
<rect width="126.369" height="48" fill="white" transform="translate(0.0195312)"/>
</clipPath>
</defs>
</svg>
