<svg width="126" height="48" viewBox="0 0 126 48" fill="none" xmlns="http://www.w3.org/2000/svg">
<g style="mix-blend-mode:luminosity" clip-path="url(#clip0_1319_3680)">
<path d="M17.5032 38.0663C15.6191 38.3595 13.7018 38.4474 11.7186 38.6816L5.66923 22.9786V39.3555C3.78513 39.5313 2.06628 39.7656 0.28125 40V10H5.30584L12.1813 27.0217V10H17.5032V38.0663ZM27.9158 20.9863C29.9653 20.9863 33.1056 20.8984 34.9897 20.8984V25.5858C32.6426 25.5858 29.8992 25.5858 27.9158 25.6737V32.6465C31.0231 32.4708 34.1303 32.2362 37.2705 32.1483V36.6597L22.6267 37.6854V10H37.2705V14.6875H27.9158V20.9863ZM56.9385 14.6876H51.4513V36.2501C49.6663 36.2501 47.8813 36.2501 46.1627 36.3085V14.6876H40.6755V10H56.9388L56.9385 14.6876ZM65.5329 20.6642H72.7722V25.3516H65.5329V35.9864H60.3428V10H75.1191V14.6875H65.5329V20.6642ZM83.7135 31.8848C86.7217 31.9432 89.7626 32.1486 92.7047 32.2948V36.9238C87.9778 36.66 83.2508 36.3966 78.4248 36.3085V10H83.7135V31.8848ZM97.1672 37.2461C98.853 37.3341 100.638 37.422 102.357 37.5975V10H97.1672V37.2461ZM125.529 10L118.819 24.2676L125.529 40C123.546 39.7656 121.562 39.4433 119.579 39.1503L115.778 30.4786L111.91 38.4474C109.993 38.1542 108.142 38.0663 106.225 37.8319L113.034 24.0917L106.886 10H112.571L116.042 17.8809L119.744 10H125.529V10Z" fill="#D81F26"/>
</g>
<defs>
<clipPath id="clip0_1319_3680">
<rect width="125.241" height="48" fill="white" transform="translate(0.28125)"/>
</clipPath>
</defs>
</svg>
