<svg width="147" height="48" viewBox="0 0 147 48" fill="none" xmlns="http://www.w3.org/2000/svg">
<g style="mix-blend-mode:luminosity" clip-path="url(#clip0_1319_3679)">
<path d="M51.525 34.7744V20.2194H51.8176L63.7715 34.7744H67.5333V13.4001H63.3536V27.9185H63.061L51.1071 13.4001H47.3453V34.7744H51.525ZM79.3618 35.1044C84.879 35.1044 88.2646 31.9514 88.2646 26.672C88.2646 21.4293 84.879 18.2396 79.3618 18.2396C73.8864 18.2396 70.4591 21.4293 70.4591 26.672C70.5009 31.9514 73.8446 35.1044 79.3618 35.1044ZM79.3618 32.0247C76.436 32.0247 74.7642 30.0816 74.7642 26.672C74.7642 23.2991 76.436 21.3193 79.3618 21.3193C82.2876 21.3193 83.9595 23.2991 83.9595 26.672C83.9595 30.0816 82.2876 32.0247 79.3618 32.0247ZM92.0681 14.61V18.6796H89.1423V21.6126H92.0681V30.4483C92.0681 33.6012 93.74 34.8478 98.0033 34.8478C98.7974 34.8478 99.5916 34.7744 100.219 34.6645V31.8048C99.717 31.8414 99.3826 31.8781 98.7974 31.8781C97.042 31.8781 96.2478 31.1815 96.2478 29.5684V21.6126H100.219V18.6796H96.2478V14.61H92.0681ZM102.726 34.7744H106.906V18.5696H102.726V34.7744ZM104.816 15.8932C106.196 15.8932 107.324 14.9033 107.324 13.6934C107.324 12.4469 106.196 11.457 104.816 11.457C103.437 11.457 102.308 12.4469 102.308 13.6934C102.308 14.9033 103.437 15.8932 104.816 15.8932ZM118.358 35.1044C123.876 35.1044 127.261 31.9514 127.261 26.672C127.261 21.4293 123.876 18.2396 118.358 18.2396C112.883 18.2396 109.456 21.4293 109.456 26.672C109.456 31.9514 112.799 35.1044 118.358 35.1044ZM118.358 32.0247C115.433 32.0247 113.761 30.0816 113.761 26.672C113.761 23.2991 115.433 21.3193 118.358 21.3193C121.242 21.3193 122.956 23.2991 122.956 26.672C122.914 30.0816 121.242 32.0247 118.358 32.0247ZM129.727 34.7744H133.907V25.3522C133.907 22.9691 135.495 21.4659 137.961 21.4659C140.511 21.4659 141.681 22.7124 141.681 25.1688V34.7744H145.861V24.2889C145.861 20.4027 143.604 18.2396 139.508 18.2396C136.749 18.2396 134.91 19.3395 134.032 21.1726H133.74V18.5696H129.685C129.727 18.5696 129.727 34.7744 129.727 34.7744Z" fill="black"/>
<path fill-rule="evenodd" clip-rule="evenodd" d="M7.26912 12.0321C8.48563 12.9019 8.92564 12.8332 11.2034 12.6959L32.6605 11.5514C33.1264 11.5514 32.7381 11.1394 32.5828 11.0936L29.011 8.82758C28.338 8.36979 27.4062 7.82044 25.672 7.95778L4.91376 9.30825C4.16315 9.37692 4.00785 9.72026 4.31844 9.97205L7.26912 12.0321ZM8.56328 16.4498V36.4094C8.56328 37.4852 9.15859 37.8743 10.5304 37.8056L34.1099 36.5925C35.4818 36.5238 35.637 35.7913 35.637 34.9215V15.0993C35.637 14.2295 35.2488 13.7488 34.4205 13.8175L9.77979 15.0993C8.87388 15.168 8.56328 15.58 8.56328 16.4498ZM31.8322 17.5256C31.9875 18.1207 31.8322 18.7387 31.1593 18.8074L30.0204 19.0134V33.7542C29.0368 34.212 28.1309 34.4866 27.3544 34.4866C26.1379 34.4866 25.8273 34.1433 24.9214 33.1362L17.493 22.813V32.7928L19.8483 33.2506C19.8483 33.2506 19.8483 34.4638 17.9589 34.4638L12.7305 34.7384C12.5752 34.4638 12.7305 33.8 13.2481 33.6626L14.6199 33.3193V20.135L12.7305 19.9976C12.5752 19.4025 12.9634 18.5327 14.0246 18.464L19.6413 18.1207L27.3803 28.5583V19.3338L25.4132 19.1278C25.2579 18.3954 25.8791 17.846 26.6297 17.7773L31.8322 17.5256ZM3.17958 7.4771L24.792 6.08084C27.4321 5.87484 28.1309 6.01217 29.7875 7.08798L36.6724 11.3683C37.8112 12.1008 38.1995 12.3068 38.1995 13.1079V36.6154C38.1995 38.0803 37.6042 38.9501 35.4817 39.0874L10.401 40.4379C8.79623 40.5066 8.04562 40.3006 7.21736 39.3621L2.11838 33.5253C1.21247 32.4495 0.824219 31.6484 0.824219 30.7099V9.81182C0.824219 8.59868 1.44541 7.61443 3.17958 7.4771Z" fill="black"/>
</g>
<defs>
<clipPath id="clip0_1319_3679">
<rect width="145.551" height="48" fill="white" transform="translate(0.824219)"/>
</clipPath>
</defs>
</svg>
