<svg width="129" height="48" viewBox="0 0 129 48" fill="none" xmlns="http://www.w3.org/2000/svg">
<g style="mix-blend-mode:luminosity" clip-path="url(#clip0_1319_3678)">
<path d="M14.1807 13.1055V22.1932H4.76376V13.1055H0.292969V34.7988H4.76376V26.0061H14.1807V34.7988H18.6515V13.1055H14.1807Z" fill="#33475B"/>
<path d="M32.9597 27.7859C32.9597 28.6553 32.57 29.4891 31.8764 30.1039C31.1828 30.7186 30.242 31.064 29.2611 31.064C28.2801 31.064 27.3394 30.7186 26.6457 30.1039C25.9521 29.4891 25.5624 28.6553 25.5624 27.7859V18.4944H21.3216V27.7859C21.3216 29.6504 22.1573 31.4384 23.6448 32.7568C25.1323 34.0751 27.1498 34.8158 29.2534 34.8158C31.357 34.8158 33.3745 34.0751 34.862 32.7568C36.3495 31.4384 37.1852 29.6504 37.1852 27.7859V18.4944H32.9597V27.7859Z" fill="#33475B"/>
<path d="M64.3811 19.452C64.3811 17.5474 65.8027 16.9437 67.3601 16.9437C68.6153 16.9437 70.2735 17.7901 71.3578 18.8171L74.1353 15.9166C72.7487 14.2548 69.9362 13.1055 67.634 13.1055C63.0339 13.1055 59.7066 15.4934 59.7066 19.452C59.7066 26.7963 69.8354 24.4666 69.8354 28.5766C69.8354 29.8443 68.4466 30.9645 66.8563 30.9645C64.3482 30.9645 63.5356 29.8773 62.3834 28.728L59.3013 31.5683C61.2728 33.7135 63.7042 34.8027 66.6176 34.8027C70.9876 34.8027 74.5033 32.3856 74.5033 28.6076C74.5033 20.4537 64.3745 22.9873 64.3745 19.452" fill="#33475B"/>
<path d="M127.042 31.3331C124.536 31.3331 123.824 30.3721 123.824 28.9005V22.3871H127.719V19.0867H123.824V14.7321L119.525 16.4425V29.7101C119.525 33.1037 122.166 34.8141 125.789 34.8141C126.358 34.8232 126.925 34.7829 127.485 34.6937L128.534 31.271C128.061 31.3001 127.518 31.3292 127.042 31.3292" fill="#33475B"/>
<path d="M49.1025 18.6039C47.0018 18.6039 45.5363 19.1436 44.1191 20.3764V13.2359H39.8717V26.4705C39.8717 31.425 43.9132 34.8186 48.4541 34.8186C53.4922 34.8186 57.9236 31.3648 57.9236 26.7132C57.9236 22.1198 53.8449 18.6058 49.1025 18.6058V18.6039ZM49.0762 31.0309C48.1231 31.0309 47.1913 30.7804 46.3988 30.3111C45.6063 29.8417 44.9887 29.1747 44.6239 28.3942C44.2592 27.6138 44.1638 26.755 44.3497 25.9265C44.5356 25.098 44.9946 24.337 45.6686 23.7396C46.3425 23.1423 47.2012 22.7355 48.136 22.5707C49.0708 22.4059 50.0398 22.4905 50.9204 22.8138C51.8009 23.137 52.5536 23.6845 53.0831 24.3869C53.6126 25.0892 53.8952 25.915 53.8952 26.7598C53.8952 27.8925 53.3875 28.9789 52.4838 29.7799C51.58 30.5809 50.3543 31.0309 49.0762 31.0309Z" fill="#33475B"/>
<path d="M95.2208 26.5143C95.2208 21.8549 90.7982 18.4089 85.7513 18.4089C81.2104 18.4089 77.169 21.8025 77.169 26.757V39.9993H81.4163V32.8491C82.8314 34.08 84.299 34.6216 86.3975 34.6216C91.1399 34.6216 95.2186 31.1096 95.2186 26.5143H95.2208ZM91.1991 26.4677C91.1991 27.3125 90.9164 28.1382 90.3869 28.8406C89.8574 29.543 89.1047 30.0904 88.2242 30.4137C87.3436 30.737 86.3746 30.8215 85.4398 30.6567C84.505 30.4919 83.6464 30.0852 82.9724 29.4878C82.2984 28.8905 81.8395 28.1295 81.6535 27.301C81.4676 26.4724 81.563 25.6137 81.9277 24.8332C82.2925 24.0528 82.9102 23.3857 83.7027 22.9164C84.4952 22.4471 85.4269 22.1966 86.38 22.1966C87.6581 22.1966 88.8838 22.6466 89.7876 23.4476C90.6913 24.2486 91.1991 25.3349 91.1991 26.4677Z" fill="#33475B"/>
<path d="M108.9 18.3496V14.6066C109.458 14.3756 109.93 14.0088 110.262 13.5489C110.594 13.089 110.772 12.555 110.775 12.009V11.9216C110.772 11.1587 110.429 10.4276 109.821 9.88807C109.212 9.34858 108.387 9.04458 107.526 9.04254H107.428C106.567 9.04458 105.742 9.34858 105.133 9.88807C104.525 10.4276 104.182 11.1587 104.179 11.9216V12.009C104.182 12.555 104.36 13.089 104.692 13.5489C105.024 14.0088 105.496 14.3756 106.054 14.6066V18.3496C104.45 18.5671 102.938 19.1565 101.673 20.0581L90.0768 12.0614C90.1594 11.7976 90.2036 11.5256 90.2083 11.2519C90.2091 10.6095 89.9951 9.98128 89.5931 9.44673C89.1911 8.91217 88.6194 8.49527 87.9501 8.24873C87.2808 8.00219 86.544 7.93708 85.8329 8.06166C85.1219 8.18623 84.4685 8.49487 83.9554 8.94857C83.4422 9.40226 83.0924 9.98063 82.9502 10.6105C82.8079 11.2404 82.8796 11.8936 83.1562 12.4873C83.4328 13.0811 83.9018 13.5889 84.504 13.9464C85.1061 14.3039 85.8144 14.4952 86.5392 14.496C87.1759 14.4939 87.8006 14.3432 88.3507 14.0591L99.7522 21.9257C98.7253 23.2989 98.1895 24.9146 98.2149 26.5619C98.2403 28.2091 98.8257 29.8113 99.8946 31.1591L96.4249 34.2343C96.1463 34.1557 95.8563 34.1138 95.564 34.11C94.9683 34.11 94.386 34.2666 93.8907 34.5599C93.3954 34.8532 93.0093 35.2701 92.7814 35.7579C92.5534 36.2457 92.4938 36.7824 92.61 37.3002C92.7262 37.818 93.013 38.2937 93.4343 38.667C93.8555 39.0403 94.3922 39.2946 94.9764 39.3976C95.5607 39.5006 96.1663 39.4477 96.7166 39.2457C97.267 39.0436 97.7374 38.7015 98.0683 38.2625C98.3993 37.8235 98.5759 37.3074 98.5759 36.7794C98.5719 36.5204 98.5247 36.2633 98.4357 36.0165L101.868 32.9743C102.989 33.7328 104.29 34.2544 105.673 34.4993C107.055 34.7441 108.483 34.7058 109.846 34.3871C111.209 34.0685 112.472 33.478 113.539 32.6607C114.606 31.8434 115.447 30.8209 116 29.6713C116.553 28.5217 116.802 27.2754 116.728 26.0275C116.655 24.7796 116.26 23.5631 115.575 22.4709C114.89 21.3786 113.933 20.4395 112.776 19.7253C111.619 19.0111 110.293 18.5405 108.9 18.3496ZM107.478 30.6621C106.539 30.6621 105.621 30.4152 104.84 29.9527C104.059 29.4902 103.45 28.8329 103.091 28.0638C102.731 27.2947 102.637 26.4484 102.82 25.632C103.004 24.8155 103.456 24.0655 104.12 23.4769C104.784 22.8883 105.63 22.4874 106.552 22.325C107.473 22.1626 108.428 22.2459 109.295 22.5645C110.163 22.8831 110.905 23.4225 111.427 24.1147C111.949 24.8069 112.227 25.6206 112.227 26.4531C112.227 27.5694 111.727 28.6399 110.836 29.4293C109.946 30.2186 108.738 30.6621 107.478 30.6621Z" fill="#FF7A59"/>
</g>
<defs>
<clipPath id="clip0_1319_3678">
<rect width="128.626" height="48" fill="white" transform="translate(0.292969)"/>
</clipPath>
</defs>
</svg>
